<?xml version="1.0" standalone="no"?>
<!DOCTYPE svg PUBLIC "-//W3C//DTD SVG 20010904//EN"
 "http://www.w3.org/TR/2001/REC-SVG-20010904/DTD/svg10.dtd">
<svg version="1.0" xmlns="http://www.w3.org/2000/svg"
 width="16.000000pt" height="16.000000pt" viewBox="0 0 16.000000 16.000000"
 preserveAspectRatio="xMidYMid meet">

<g transform="translate(0.000000,16.000000) scale(0.100000,-0.100000)"
fill="#000000" stroke="none">
<path d="M53 128 c-13 -6 -23 -15 -23 -20 0 -12 18 -10 26 3 3 6 17 9 30 6 27
-5 33 8 8 17 -9 3 -16 6 -17 5 -1 0 -12 -5 -24 -11z"/>
<path d="M80 80 c0 -5 9 -10 21 -10 15 0 19 -5 15 -16 -3 -8 -2 -12 4 -9 6 3
10 15 10 26 0 14 -7 19 -25 19 -14 0 -25 -4 -25 -10z"/>
</g>
</svg>
