<svg version="1.1" id="Layer_1" xmlns="http://www.w3.org/2000/svg" xmlns:xlink="http://www.w3.org/1999/xlink" x="0px" y="0px"
	 width="100%" viewBox="0 0 1024 460" enable-background="new 0 0 1024 460" xml:space="preserve">
<path fill="#000000" opacity="1.000000" stroke="none" 
	d="
M697.000000,461.000000 
	C464.666656,461.000000 232.833328,461.000000 1.000000,461.000000 
	C1.000000,307.666656 1.000000,154.333328 1.000000,1.000000 
	C342.333344,1.000000 683.666687,1.000000 1025.000000,1.000000 
	C1025.000000,154.333328 1025.000000,307.666656 1025.000000,461.000000 
	C915.833313,461.000000 806.666687,461.000000 697.000000,461.000000 
M563.772522,240.917816 
	C567.851013,232.480408 565.972168,223.915955 564.725098,214.923920 
	C553.391785,214.923920 542.458740,214.923920 531.110718,214.923920 
	C531.110718,201.134781 531.110718,187.779160 531.110718,173.997650 
	C533.413696,173.997650 535.211060,173.997620 537.008484,173.997665 
	C548.007324,173.998016 559.007935,173.889282 570.004089,174.060562 
	C573.636108,174.117142 575.195618,172.957581 575.049316,169.207504 
	C574.854614,164.215622 574.733582,159.191788 575.078186,154.216125 
	C575.418884,149.297470 573.350403,147.894989 568.706665,147.932190 
	C548.543274,148.093781 528.375061,148.184586 508.215118,147.877304 
	C502.964386,147.797287 501.880981,149.551163 501.896515,154.445236 
	C502.059814,205.939621 502.072662,257.434998 501.879486,308.929199 
	C501.860443,314.003296 503.789825,315.082306 508.218140,315.052612 
	C526.882080,314.927460 545.547729,314.933899 564.212097,315.023438 
	C576.431335,315.082062 575.057678,315.047211 574.972717,304.226074 
	C574.935242,299.450256 576.379822,292.652222 573.889343,290.432678 
	C570.998779,287.856537 564.529114,289.110687 559.608032,289.038300 
	C550.168274,288.899445 540.724976,288.997864 530.600830,288.997864 
	C530.600830,283.083344 530.536926,277.792328 530.614380,272.503418 
	C530.767822,262.027954 530.999390,251.553635 532.096680,241.069016 
	C542.381897,241.000397 552.667053,240.931793 563.772522,240.917816 
M352.810944,276.539490 
	C352.871124,246.719376 352.937500,216.899261 352.954224,187.079132 
	C352.954620,186.373535 352.398926,185.667633 352.018250,184.117371 
	C351.675659,181.700287 351.333954,179.283081 350.990295,176.866150 
	C349.826752,168.682343 346.066284,161.998962 339.981415,156.351028 
	C334.066559,150.860901 327.109680,148.054276 319.293610,147.769913 
	C311.949371,147.502716 304.124176,146.559372 297.299225,148.578766 
	C278.494019,154.142914 271.578705,167.918823 271.212646,184.853714 
	C270.539978,215.974869 270.920013,247.121384 271.088196,278.256104 
	C271.125122,285.092102 272.903534,291.665222 276.244843,297.799164 
	C281.194611,306.885895 288.395416,313.170959 298.678741,314.680786 
	C306.306519,315.800720 314.262451,316.656219 321.815247,315.667206 
	C327.431854,314.931671 333.167725,311.798492 337.916931,308.420654 
	C348.521149,300.878418 351.387146,289.320587 352.810944,276.539490 
M256.814972,310.535034 
	C256.872559,310.039825 256.980469,309.544647 256.980591,309.049438 
	C256.992157,257.560516 257.001678,206.071625 256.962128,154.582748 
	C256.961182,153.376831 256.402863,152.171341 255.970261,150.157852 
	C254.680786,149.439148 253.401169,148.118378 252.100266,148.097046 
	C241.773300,147.927643 231.439713,148.135498 221.114014,147.931656 
	C217.796585,147.866180 216.494217,149.703186 216.105484,152.225769 
	C214.908630,159.992432 213.986313,167.802185 213.009125,175.601700 
	C211.886826,184.559235 210.986084,193.547943 209.683319,202.478516 
	C208.319855,211.825012 206.439545,221.096008 205.069946,230.441727 
	C203.782181,239.229080 202.865952,248.070877 201.786240,256.888702 
	C200.571320,253.523727 200.457474,250.113419 199.885254,246.781815 
	C198.483994,238.623291 196.573334,230.542847 195.425522,222.352798 
	C194.231430,213.832596 193.912201,205.192383 192.816101,196.655273 
	C191.045135,182.862015 188.881439,169.119629 187.023056,155.336960 
	C186.073349,148.293503 185.902893,148.000351 178.881790,148.003265 
	C170.051514,148.006912 161.216354,148.177155 152.393112,147.928040 
	C148.316132,147.812927 146.828781,149.006500 146.910767,153.273056 
	C147.157196,166.097214 146.998871,178.929153 146.998840,191.758057 
	C146.998779,230.744598 147.098267,269.731689 146.880722,308.717010 
	C146.851547,313.945618 148.564423,315.486786 153.466660,315.066406 
	C157.436066,314.726013 161.484848,314.707581 165.449463,315.074738 
	C169.927902,315.489532 171.112137,313.805664 171.089218,309.449463 
	C170.925369,278.294403 171.001755,247.138092 171.001801,215.982178 
	C171.001801,214.214081 171.001785,212.445999 171.001785,210.341660 
	C171.895447,210.882355 172.637833,211.085815 172.685852,211.396561 
	C173.835342,218.835388 174.898849,226.287445 176.002090,233.733521 
	C177.221451,241.963287 178.434738,250.194183 179.705826,258.416046 
	C181.104172,267.461090 182.579514,276.494171 183.994934,285.536591 
	C185.310272,293.939545 186.737839,302.329193 187.811493,310.763458 
	C188.217682,313.954437 189.747055,315.013367 192.634750,315.000061 
	C197.799515,314.976227 202.987701,315.264404 208.115784,314.829163 
	C209.749268,314.690521 212.135864,312.952057 212.594086,311.459442 
	C213.827759,307.440918 214.285248,303.171814 214.909912,298.981171 
	C216.214081,290.231903 217.345337,281.456421 218.698929,272.715118 
	C220.399002,261.736237 222.344818,250.795105 224.011459,239.811417 
	C225.819855,227.893387 227.429260,215.945175 229.125443,204.010117 
	C229.416565,204.034897 229.707687,204.059692 229.998810,204.084473 
	C229.998810,205.874908 229.998779,207.665344 229.998795,209.455780 
	C229.998978,242.777603 229.994537,276.099426 230.008377,309.421265 
	C230.009445,312.011780 229.309738,315.059937 233.609558,315.005859 
	C239.606491,314.930389 245.605438,315.026123 251.602814,314.970306 
	C254.148071,314.946625 256.207703,314.172150 256.814972,310.535034 
M866.472229,148.004242 
	C863.473389,148.004318 860.431702,148.321808 857.486694,147.923630 
	C853.861938,147.433548 851.558289,149.115433 850.556458,152.052277 
	C847.509094,160.986008 844.878357,170.060883 841.988831,179.049774 
	C839.846313,185.714615 837.553284,192.331055 835.094604,199.663025 
	C834.316284,198.312790 833.890015,197.805878 833.707581,197.222672 
	C829.102600,182.503693 824.479492,167.790054 819.972717,153.040939 
	C818.953735,149.706390 817.436584,147.772522 813.506104,147.929352 
	C806.686523,148.201462 799.848267,148.005829 793.017822,148.002991 
	C789.409729,148.001495 788.401550,149.105164 789.873474,152.901443 
	C794.146301,163.922363 797.985901,175.111740 801.966797,186.245270 
	C805.529236,196.208496 809.442688,206.070251 812.440002,216.201981 
	C814.077637,221.737747 818.378052,226.844925 816.005493,233.330673 
	C812.796997,242.101273 809.859375,250.971024 806.645325,259.739471 
	C800.600037,276.231964 794.420349,292.675171 788.342102,309.155640 
	C786.882690,313.112762 788.315735,314.976288 792.699097,314.995697 
	C798.196655,315.020020 803.713440,314.718689 809.185547,315.091766 
	C813.028442,315.353729 814.738342,313.220551 815.781799,310.358093 
	C817.728516,305.018463 819.238159,299.521454 821.066223,294.136292 
	C824.722168,283.366608 828.470154,272.628204 832.630127,260.572937 
	C838.398743,277.957825 843.795776,293.970123 848.984497,310.049652 
	C850.180237,313.755463 852.171753,315.242584 856.080322,315.065338 
	C861.899170,314.801514 867.738953,315.011536 873.569702,314.993256 
	C879.155029,314.975739 880.003418,313.854248 878.190125,308.531250 
	C874.833008,298.676086 871.457886,288.825745 867.947998,279.024323 
	C863.463562,266.501892 858.960571,253.983322 854.225952,241.554382 
	C851.591919,234.639969 849.981323,227.910324 853.928833,220.953186 
	C854.804443,219.410065 855.376282,217.679031 855.966492,215.992035 
	C862.981506,195.940079 869.998596,175.888779 876.955933,155.816788 
	C878.980896,149.974884 878.729187,147.266190 871.943481,147.981201 
	C870.460571,148.137466 868.947144,148.004181 866.472229,148.004242 
M368.002716,204.312469 
	C369.001434,210.921188 369.980011,217.533035 371.005005,224.137680 
	C371.906677,229.947830 372.860626,235.749832 373.790802,241.555573 
	C375.526337,252.388016 377.266846,263.219696 378.995087,274.053284 
	C380.998871,286.613861 382.895844,299.193298 385.134338,311.711761 
	C385.362915,312.990234 387.584778,314.808563 388.926453,314.847870 
	C398.412628,315.125702 407.914337,315.139832 417.400787,314.872681 
	C418.936401,314.829437 421.056396,313.292328 421.774323,311.873108 
	C422.756104,309.932434 422.671478,307.445984 423.013062,305.188782 
	C424.698822,294.048645 426.415283,282.912903 428.042389,271.764160 
	C429.742920,260.111908 431.330109,248.443176 433.013184,236.788345 
	C434.064392,229.508942 435.088806,222.222672 436.329071,214.974365 
	C437.783569,206.473816 439.670227,198.043777 440.988556,189.524231 
	C442.863464,177.407852 444.015717,165.167389 446.271545,153.128876 
	C447.058044,148.931656 445.120972,148.250381 442.523102,148.120483 
	C436.375580,147.813095 430.191406,147.823502 424.047852,148.166809 
	C422.648499,148.245010 420.362823,150.036316 420.162415,151.304230 
	C417.921509,165.482544 415.914185,179.700317 414.043457,193.933701 
	C412.848999,203.021622 412.147827,212.174622 410.941040,221.260651 
	C408.919861,236.478073 406.671478,251.665283 404.326385,268.223450 
	C402.772461,256.310303 401.402985,245.674683 399.993103,235.044418 
	C398.831512,226.286179 397.605499,217.536484 396.438538,208.778931 
	C395.273590,200.036392 394.157043,191.287430 393.000031,182.543823 
	C391.668457,172.481247 390.394165,162.409943 388.921875,152.367828 
	C388.509796,149.557312 387.062286,147.762909 383.569672,147.922791 
	C377.253571,148.211945 370.905792,148.200684 364.588257,147.924606 
	C360.561737,147.748627 359.465027,149.659027 360.041016,153.047058 
	C361.463257,161.413086 363.185333,169.729797 364.514862,178.109497 
	C365.848145,186.512955 366.852020,194.968719 368.002716,204.312469 
M588.000916,209.500000 
	C588.000916,242.805725 588.076599,276.111816 587.909973,309.416718 
	C587.887817,313.836426 589.228821,315.320679 593.601685,315.075043 
	C599.245850,314.758026 604.924316,314.885437 610.582275,315.037048 
	C614.485535,315.141632 616.110657,313.800079 616.075073,309.608826 
	C615.902161,289.293793 615.997803,268.976471 615.998230,248.659943 
	C615.998230,246.888931 615.998169,245.117920 615.998169,242.931320 
	C625.604431,242.931320 634.583679,242.579391 643.515381,243.078049 
	C648.060303,243.331818 649.732971,241.139221 649.845398,237.630112 
	C650.063660,230.817902 649.656433,223.985641 649.500610,216.804276 
	C637.611938,216.804276 627.019104,216.804276 616.363281,216.804276 
	C616.363281,202.365616 616.363281,188.329514 616.363281,173.913437 
	C630.338501,173.913437 643.930664,173.913437 658.001099,173.913437 
	C658.001099,167.091782 657.738892,160.628876 658.088745,154.199265 
	C658.342773,149.530060 657.033081,147.822998 652.050110,147.892532 
	C632.570007,148.164352 613.082642,148.123535 593.601013,147.911285 
	C589.231201,147.863678 587.854309,149.121750 587.907715,153.546616 
	C588.128845,171.862122 588.000732,190.181839 588.000916,209.500000 
M669.000549,152.789810 
	C669.000183,204.919235 669.051941,257.048828 668.908203,309.177856 
	C668.895630,313.735352 670.067993,315.176605 674.789490,315.111115 
	C694.271790,314.840729 713.761108,314.889984 733.245361,315.078491 
	C737.713989,315.121735 739.838623,313.040436 739.885986,309.132629 
	C739.966675,302.467865 739.476685,295.796234 739.213318,288.778625 
	C724.601501,288.778625 711.014404,288.778625 696.998169,288.778625 
	C696.998169,286.256134 696.998169,284.121796 696.998169,281.987457 
	C696.998108,239.184708 696.948486,196.381790 697.078613,153.579437 
	C697.090942,149.524933 695.871216,147.861343 691.793579,147.963882 
	C685.468750,148.122925 679.136047,148.073776 672.808655,147.978683 
	C670.021118,147.936798 668.787720,149.099640 669.000549,152.789810 
M777.991943,159.567764 
	C777.992065,157.902985 777.995178,156.238205 777.991638,154.573425 
	C777.978760,148.596313 777.407593,148.018188 771.415833,148.005508 
	C765.922119,147.993881 760.423767,148.140335 754.936157,147.957489 
	C750.821838,147.820389 748.946289,149.138702 748.955505,153.633621 
	C749.061951,205.740662 749.062622,257.848083 748.947632,309.955078 
	C748.938660,314.027863 750.617432,315.115936 754.224854,315.033813 
	C759.549377,314.912598 764.878662,315.009186 770.205933,314.996460 
	C777.333191,314.979431 777.989258,314.342682 777.989807,307.380463 
	C777.993530,258.436279 777.991882,209.492126 777.991943,159.567764 
M479.191345,148.004898 
	C473.361450,148.004822 467.525757,148.160339 461.703827,147.945038 
	C458.330048,147.820236 456.940857,148.797379 456.946411,152.401855 
	C457.027649,205.037292 457.028595,257.672943 456.941376,310.308380 
	C456.935547,313.830139 458.255371,315.075928 461.596130,315.021057 
	C467.590973,314.922546 473.589752,314.921936 479.584595,315.020416 
	C483.506592,315.084808 485.100494,313.577484 485.091949,309.424652 
	C484.985260,257.455566 484.993591,205.486176 485.082214,153.517029 
	C485.088562,149.811462 484.010406,147.836288 479.191345,148.004898 
z"/>
<path fill="#DB202C" opacity="1.000000" stroke="none" 
	d="
M256.117554,311.033173 
	C256.207703,314.172150 254.148071,314.946625 251.602814,314.970306 
	C245.605438,315.026123 239.606491,314.930389 233.609558,315.005859 
	C229.309738,315.059937 230.009445,312.011780 230.008377,309.421265 
	C229.994537,276.099426 229.998978,242.777603 229.998795,209.455780 
	C229.998779,207.665344 229.998810,205.874908 229.998810,204.084473 
	C229.707687,204.059692 229.416565,204.034897 229.125443,204.010117 
	C227.429260,215.945175 225.819855,227.893387 224.011459,239.811417 
	C222.344818,250.795105 220.399002,261.736237 218.698929,272.715118 
	C217.345337,281.456421 216.214081,290.231903 214.909912,298.981171 
	C214.285248,303.171814 213.827759,307.440918 212.594086,311.459442 
	C212.135864,312.952057 209.749268,314.690521 208.115784,314.829163 
	C202.987701,315.264404 197.799515,314.976227 192.634750,315.000061 
	C189.747055,315.013367 188.217682,313.954437 187.811493,310.763458 
	C186.737839,302.329193 185.310272,293.939545 183.994934,285.536591 
	C182.579514,276.494171 181.104172,267.461090 179.705826,258.416046 
	C178.434738,250.194183 177.221451,241.963287 176.002090,233.733521 
	C174.898849,226.287445 173.835342,218.835388 172.685852,211.396561 
	C172.637833,211.085815 171.895447,210.882355 171.001785,210.341660 
	C171.001785,212.445999 171.001801,214.214081 171.001801,215.982178 
	C171.001755,247.138092 170.925369,278.294403 171.089218,309.449463 
	C171.112137,313.805664 169.927902,315.489532 165.449463,315.074738 
	C161.484848,314.707581 157.436066,314.726013 153.466660,315.066406 
	C148.564423,315.486786 146.851547,313.945618 146.880722,308.717010 
	C147.098267,269.731689 146.998779,230.744598 146.998840,191.758057 
	C146.998871,178.929153 147.157196,166.097214 146.910767,153.273056 
	C146.828781,149.006500 148.316132,147.812927 152.393112,147.928040 
	C161.216354,148.177155 170.051514,148.006912 178.881790,148.003265 
	C185.902893,148.000351 186.073349,148.293503 187.023056,155.336960 
	C188.881439,169.119629 191.045135,182.862015 192.816101,196.655273 
	C193.912201,205.192383 194.231430,213.832596 195.425522,222.352798 
	C196.573334,230.542847 198.483994,238.623291 199.885254,246.781815 
	C200.457474,250.113419 200.571320,253.523727 201.786240,256.888702 
	C202.865952,248.070877 203.782181,239.229080 205.069946,230.441727 
	C206.439545,221.096008 208.319855,211.825012 209.683319,202.478516 
	C210.986084,193.547943 211.886826,184.559235 213.009125,175.601700 
	C213.986313,167.802185 214.908630,159.992432 216.105484,152.225769 
	C216.494217,149.703186 217.796585,147.866180 221.114014,147.931656 
	C231.439713,148.135498 241.773300,147.927643 252.100266,148.097046 
	C253.401169,148.118378 254.680786,149.439148 256.010254,151.029968 
	C256.072662,204.945786 256.095093,257.989471 256.117554,311.033173 
z"/>
<path fill="#DB202C" opacity="1.000000" stroke="none" 
	d="
M352.109070,277.033478 
	C351.387146,289.320587 348.521149,300.878418 337.916931,308.420654 
	C333.167725,311.798492 327.431854,314.931671 321.815247,315.667206 
	C314.262451,316.656219 306.306519,315.800720 298.678741,314.680786 
	C288.395416,313.170959 281.194611,306.885895 276.244843,297.799164 
	C272.903534,291.665222 271.125122,285.092102 271.088196,278.256104 
	C270.920013,247.121384 270.539978,215.974869 271.212646,184.853714 
	C271.578705,167.918823 278.494019,154.142914 297.299225,148.578766 
	C304.124176,146.559372 311.949371,147.502716 319.293610,147.769913 
	C327.109680,148.054276 334.066559,150.860901 339.981415,156.351028 
	C346.066284,161.998962 349.826752,168.682343 350.990295,176.866150 
	C351.333954,179.283081 351.675659,181.700287 352.032715,185.008087 
	C352.067841,216.277023 352.088440,246.655243 352.109070,277.033478 
M299.975952,280.808105 
	C300.731476,287.011322 305.037689,289.930023 310.478363,290.647278 
	C314.663086,291.198975 319.358429,289.743073 321.238037,285.731659 
	C323.032593,281.901733 323.849670,277.289673 323.884003,273.011719 
	C324.106689,245.242020 324.077179,217.469162 323.906677,189.698730 
	C323.883270,185.882706 323.298523,181.776413 321.782562,178.328110 
	C319.118927,172.269135 313.186859,172.220703 307.822510,173.157043 
	C302.779877,174.037231 300.444733,178.079880 299.449646,183.764877 
	C299.301971,185.082184 299.026459,186.399368 299.025360,187.716797 
	C299.000702,216.878555 298.993073,246.040359 299.041748,275.202057 
	C299.044464,276.822052 299.561340,278.441162 299.975952,280.808105 
z"/>
<path fill="#DB202B" opacity="1.000000" stroke="none" 
	d="
M866.960022,148.004242 
	C868.947144,148.004181 870.460571,148.137466 871.943481,147.981201 
	C878.729187,147.266190 878.980896,149.974884 876.955933,155.816788 
	C869.998596,175.888779 862.981506,195.940079 855.966492,215.992035 
	C855.376282,217.679031 854.804443,219.410065 853.928833,220.953186 
	C849.981323,227.910324 851.591919,234.639969 854.225952,241.554382 
	C858.960571,253.983322 863.463562,266.501892 867.947998,279.024323 
	C871.457886,288.825745 874.833008,298.676086 878.190125,308.531250 
	C880.003418,313.854248 879.155029,314.975739 873.569702,314.993256 
	C867.738953,315.011536 861.899170,314.801514 856.080322,315.065338 
	C852.171753,315.242584 850.180237,313.755463 848.984497,310.049652 
	C843.795776,293.970123 838.398743,277.957825 832.630127,260.572937 
	C828.470154,272.628204 824.722168,283.366608 821.066223,294.136292 
	C819.238159,299.521454 817.728516,305.018463 815.781799,310.358093 
	C814.738342,313.220551 813.028442,315.353729 809.185547,315.091766 
	C803.713440,314.718689 798.196655,315.020020 792.699097,314.995697 
	C788.315735,314.976288 786.882690,313.112762 788.342102,309.155640 
	C794.420349,292.675171 800.600037,276.231964 806.645325,259.739471 
	C809.859375,250.971024 812.796997,242.101273 816.005493,233.330673 
	C818.378052,226.844925 814.077637,221.737747 812.440002,216.201981 
	C809.442688,206.070251 805.529236,196.208496 801.966797,186.245270 
	C797.985901,175.111740 794.146301,163.922363 789.873474,152.901443 
	C788.401550,149.105164 789.409729,148.001495 793.017822,148.002991 
	C799.848267,148.005829 806.686523,148.201462 813.506104,147.929352 
	C817.436584,147.772522 818.953735,149.706390 819.972717,153.040939 
	C824.479492,167.790054 829.102600,182.503693 833.707581,197.222672 
	C833.890015,197.805878 834.316284,198.312790 835.094604,199.663025 
	C837.553284,192.331055 839.846313,185.714615 841.988831,179.049774 
	C844.878357,170.060883 847.509094,160.986008 850.556458,152.052277 
	C851.558289,149.115433 853.861938,147.433548 857.486694,147.923630 
	C860.431702,148.321808 863.473389,148.004318 866.960022,148.004242 
z"/>
<path fill="#DB202C" opacity="1.000000" stroke="none" 
	d="
M368.001526,203.857010 
	C366.852020,194.968719 365.848145,186.512955 364.514862,178.109497 
	C363.185333,169.729797 361.463257,161.413086 360.041016,153.047058 
	C359.465027,149.659027 360.561737,147.748627 364.588257,147.924606 
	C370.905792,148.200684 377.253571,148.211945 383.569672,147.922791 
	C387.062286,147.762909 388.509796,149.557312 388.921875,152.367828 
	C390.394165,162.409943 391.668457,172.481247 393.000031,182.543823 
	C394.157043,191.287430 395.273590,200.036392 396.438538,208.778931 
	C397.605499,217.536484 398.831512,226.286179 399.993103,235.044418 
	C401.402985,245.674683 402.772461,256.310303 404.326385,268.223450 
	C406.671478,251.665283 408.919861,236.478073 410.941040,221.260651 
	C412.147827,212.174622 412.848999,203.021622 414.043457,193.933701 
	C415.914185,179.700317 417.921509,165.482544 420.162415,151.304230 
	C420.362823,150.036316 422.648499,148.245010 424.047852,148.166809 
	C430.191406,147.823502 436.375580,147.813095 442.523102,148.120483 
	C445.120972,148.250381 447.058044,148.931656 446.271545,153.128876 
	C444.015717,165.167389 442.863464,177.407852 440.988556,189.524231 
	C439.670227,198.043777 437.783569,206.473816 436.329071,214.974365 
	C435.088806,222.222672 434.064392,229.508942 433.013184,236.788345 
	C431.330109,248.443176 429.742920,260.111908 428.042389,271.764160 
	C426.415283,282.912903 424.698822,294.048645 423.013062,305.188782 
	C422.671478,307.445984 422.756104,309.932434 421.774323,311.873108 
	C421.056396,313.292328 418.936401,314.829437 417.400787,314.872681 
	C407.914337,315.139832 398.412628,315.125702 388.926453,314.847870 
	C387.584778,314.808563 385.362915,312.990234 385.134338,311.711761 
	C382.895844,299.193298 380.998871,286.613861 378.995087,274.053284 
	C377.266846,263.219696 375.526337,252.388016 373.790802,241.555573 
	C372.860626,235.749832 371.906677,229.947830 371.005005,224.137680 
	C369.980011,217.533035 369.001434,210.921188 368.001526,203.857010 
z"/>
<path fill="#DA202B" opacity="1.000000" stroke="none" 
	d="
M531.198608,241.078827 
	C530.999390,251.553635 530.767822,262.027954 530.614380,272.503418 
	C530.536926,277.792328 530.600830,283.083344 530.600830,288.997864 
	C540.724976,288.997864 550.168274,288.899445 559.608032,289.038300 
	C564.529114,289.110687 570.998779,287.856537 573.889343,290.432678 
	C576.379822,292.652222 574.935242,299.450256 574.972717,304.226074 
	C575.057678,315.047211 576.431335,315.082062 564.212097,315.023438 
	C545.547729,314.933899 526.882080,314.927460 508.218140,315.052612 
	C503.789825,315.082306 501.860443,314.003296 501.879486,308.929199 
	C502.072662,257.434998 502.059814,205.939621 501.896515,154.445236 
	C501.880981,149.551163 502.964386,147.797287 508.215118,147.877304 
	C528.375061,148.184586 548.543274,148.093781 568.706665,147.932190 
	C573.350403,147.894989 575.418884,149.297470 575.078186,154.216125 
	C574.733582,159.191788 574.854614,164.215622 575.049316,169.207504 
	C575.195618,172.957581 573.636108,174.117142 570.004089,174.060562 
	C559.007935,173.889282 548.007324,173.998016 537.008484,173.997665 
	C535.211060,173.997620 533.413696,173.997650 531.110718,173.997650 
	C531.110718,187.779160 531.110718,201.134781 531.110718,214.923920 
	C542.458740,214.923920 553.391785,214.923920 564.725098,214.923920 
	C565.972168,223.915955 567.851013,232.480408 562.991699,240.722931 
	C555.444031,240.350815 548.676575,240.024277 541.910828,240.057083 
	C538.338562,240.074387 534.769226,240.717987 531.198608,241.078827 
z"/>
<path fill="#DB202C" opacity="1.000000" stroke="none" 
	d="
M588.000916,209.000000 
	C588.000732,190.181839 588.128845,171.862122 587.907715,153.546616 
	C587.854309,149.121750 589.231201,147.863678 593.601013,147.911285 
	C613.082642,148.123535 632.570007,148.164352 652.050110,147.892532 
	C657.033081,147.822998 658.342773,149.530060 658.088745,154.199265 
	C657.738892,160.628876 658.001099,167.091782 658.001099,173.913437 
	C643.930664,173.913437 630.338501,173.913437 616.363281,173.913437 
	C616.363281,188.329514 616.363281,202.365616 616.363281,216.804276 
	C627.019104,216.804276 637.611938,216.804276 649.500610,216.804276 
	C649.656433,223.985641 650.063660,230.817902 649.845398,237.630112 
	C649.732971,241.139221 648.060303,243.331818 643.515381,243.078049 
	C634.583679,242.579391 625.604431,242.931320 615.998169,242.931320 
	C615.998169,245.117920 615.998230,246.888931 615.998230,248.659943 
	C615.997803,268.976471 615.902161,289.293793 616.075073,309.608826 
	C616.110657,313.800079 614.485535,315.141632 610.582275,315.037048 
	C604.924316,314.885437 599.245850,314.758026 593.601685,315.075043 
	C589.228821,315.320679 587.887817,313.836426 587.909973,309.416718 
	C588.076599,276.111816 588.000916,242.805725 588.000916,209.000000 
z"/>
<path fill="#DB202C" opacity="1.000000" stroke="none" 
	d="
M669.002319,152.319977 
	C668.787720,149.099640 670.021118,147.936798 672.808655,147.978683 
	C679.136047,148.073776 685.468750,148.122925 691.793579,147.963882 
	C695.871216,147.861343 697.090942,149.524933 697.078613,153.579437 
	C696.948486,196.381790 696.998108,239.184708 696.998169,281.987457 
	C696.998169,284.121796 696.998169,286.256134 696.998169,288.778625 
	C711.014404,288.778625 724.601501,288.778625 739.213318,288.778625 
	C739.476685,295.796234 739.966675,302.467865 739.885986,309.132629 
	C739.838623,313.040436 737.713989,315.121735 733.245361,315.078491 
	C713.761108,314.889984 694.271790,314.840729 674.789490,315.111115 
	C670.067993,315.176605 668.895630,313.735352 668.908203,309.177856 
	C669.051941,257.048828 669.000183,204.919235 669.002319,152.319977 
z"/>
<path fill="#DA212C" opacity="1.000000" stroke="none" 
	d="
M777.991943,160.057861 
	C777.991882,209.492126 777.993530,258.436279 777.989807,307.380463 
	C777.989258,314.342682 777.333191,314.979431 770.205933,314.996460 
	C764.878662,315.009186 759.549377,314.912598 754.224854,315.033813 
	C750.617432,315.115936 748.938660,314.027863 748.947632,309.955078 
	C749.062622,257.848083 749.061951,205.740662 748.955505,153.633621 
	C748.946289,149.138702 750.821838,147.820389 754.936157,147.957489 
	C760.423767,148.140335 765.922119,147.993881 771.415833,148.005508 
	C777.407593,148.018188 777.978760,148.596313 777.991638,154.573425 
	C777.995178,156.238205 777.992065,157.902985 777.991943,160.057861 
z"/>
<path fill="#DB202C" opacity="1.000000" stroke="none" 
	d="
M479.655731,148.005920 
	C484.010406,147.836288 485.088562,149.811462 485.082214,153.517029 
	C484.993591,205.486176 484.985260,257.455566 485.091949,309.424652 
	C485.100494,313.577484 483.506592,315.084808 479.584595,315.020416 
	C473.589752,314.921936 467.590973,314.922546 461.596130,315.021057 
	C458.255371,315.075928 456.935547,313.830139 456.941376,310.308380 
	C457.028595,257.672943 457.027649,205.037292 456.946411,152.401855 
	C456.940857,148.797379 458.330048,147.820236 461.703827,147.945038 
	C467.525757,148.160339 473.361450,148.004822 479.655731,148.005920 
z"/>
<path fill="#FF0000" opacity="1.000000" stroke="none" 
	d="
M256.466248,310.784119 
	C256.095093,257.989471 256.072662,204.945786 256.077393,151.433868 
	C256.402863,152.171341 256.961182,153.376831 256.962128,154.582748 
	C257.001678,206.071625 256.992157,257.560516 256.980591,309.049438 
	C256.980469,309.544647 256.872559,310.039825 256.466248,310.784119 
z"/>
<path fill="#FF0000" opacity="1.000000" stroke="none" 
	d="
M352.459991,276.786499 
	C352.088440,246.655243 352.067841,216.277023 352.074921,185.430328 
	C352.398926,185.667633 352.954620,186.373535 352.954224,187.079132 
	C352.937500,216.899261 352.871124,246.719376 352.459991,276.786499 
z"/>
<path fill="#DB202C" opacity="1.000000" stroke="none" 
	d="
M531.647644,241.073914 
	C534.769226,240.717987 538.338562,240.074387 541.910828,240.057083 
	C548.676575,240.024277 555.444031,240.350815 562.581543,240.695618 
	C552.667053,240.931793 542.381897,241.000397 531.647644,241.073914 
z"/>
<path fill="#000000" opacity="1.000000" stroke="none" 
	d="
M299.848022,183.051666 
	C300.444733,178.079880 302.779877,174.037231 307.822510,173.157043 
	C313.186859,172.220703 319.118927,172.269135 321.782562,178.328110 
	C323.298523,181.776413 323.883270,185.882706 323.906677,189.698730 
	C324.077179,217.469162 324.106689,245.242020 323.884003,273.011719 
	C323.849670,277.289673 323.032593,281.901733 321.238037,285.731659 
	C319.358429,289.743073 314.663086,291.198975 310.478363,290.647278 
	C305.037689,289.930023 300.731476,287.011322 299.974060,279.961975 
	C299.930756,247.094437 299.889374,215.073044 299.848022,183.051666 
z"/>
<path fill="#FF0000" opacity="1.000000" stroke="none" 
	d="
M299.648804,183.408264 
	C299.889374,215.073044 299.930756,247.094437 299.905518,279.588257 
	C299.561340,278.441162 299.044464,276.822052 299.041748,275.202057 
	C298.993073,246.040359 299.000702,216.878555 299.025360,187.716797 
	C299.026459,186.399368 299.301971,185.082184 299.648804,183.408264 
z"/>
</svg>